<svg xmlns="http://www.w3.org/2000/svg" viewBox="0 0 1024 1024" width="1024" height="1024">
  <defs>
    <linearGradient id="bg" x1="0" y1="0" x2="1" y2="1">
      <stop offset="0%" stop-color="#0EA5E9"/>
      <stop offset="55%" stop-color="#22D3EE"/>
      <stop offset="100%" stop-color="#67E8F9"/>
    </linearGradient>
    <linearGradient id="drop" x1="0" y1="0" x2="0" y2="1">
      <stop offset="0%" stop-color="#FFFFFF"/>
      <stop offset="100%" stop-color="#DBEAFE"/>
    </linearGradient>
    <radialGradient id="shine" cx="35%" cy="30%" r="50%">
      <stop offset="0%" stop-color="rgba(255,255,255,0.55)"/>
      <stop offset="100%" stop-color="rgba(255,255,255,0)"/>
    </radialGradient>
  </defs>
  <rect width="1024" height="1024" rx="232" fill="url(#bg)"/>
  <circle cx="780" cy="220" r="240" fill="rgba(255,255,255,0.08)"/>
  <circle cx="200" cy="860" r="180" fill="rgba(255,255,255,0.06)"/>
  <g transform="translate(512 540)">
    <path d="M 0 -300 C 0 -300 -210 -60 -210 100 a 210 210 0 0 0 420 0 C 210 -60 0 -300 0 -300 Z" fill="url(#drop)"/>
    <path d="M 0 -300 C 0 -300 -210 -60 -210 100 a 210 210 0 0 0 420 0 C 210 -60 0 -300 0 -300 Z" fill="url(#shine)"/>
    <path d="M -80 30 q 0 100 80 130" stroke="rgba(14,165,233,0.35)" stroke-width="18" fill="none" stroke-linecap="round"/>
  </g>
</svg>
