<svg xmlns="http://www.w3.org/2000/svg" viewBox="0 0 400 400" width="400" height="400">
  <defs>
    <linearGradient id="bp-bg" x1="0" y1="0" x2="1" y2="1">
      <stop offset="0%" stop-color="#0EA5E9"/>
      <stop offset="100%" stop-color="#22D3EE"/>
    </linearGradient>
    <radialGradient id="bp-bubble">
      <stop offset="0%" stop-color="rgba(255,255,255,0.4)"/>
      <stop offset="60%" stop-color="rgba(255,255,255,0.18)"/>
      <stop offset="100%" stop-color="rgba(255,255,255,0)"/>
    </radialGradient>
  </defs>
  <rect width="400" height="400" fill="url(#bp-bg)"/>
  <g>
    <circle cx="60" cy="80" r="40" fill="url(#bp-bubble)"/>
    <circle cx="320" cy="60" r="28" fill="url(#bp-bubble)"/>
    <circle cx="180" cy="140" r="50" fill="url(#bp-bubble)"/>
    <circle cx="80" cy="240" r="34" fill="url(#bp-bubble)"/>
    <circle cx="300" cy="200" r="44" fill="url(#bp-bubble)"/>
    <circle cx="220" cy="320" r="38" fill="url(#bp-bubble)"/>
    <circle cx="60" cy="360" r="22" fill="url(#bp-bubble)"/>
    <circle cx="360" cy="340" r="26" fill="url(#bp-bubble)"/>
    <circle cx="140" cy="60" r="14" fill="rgba(255,255,255,0.3)"/>
    <circle cx="260" cy="120" r="10" fill="rgba(255,255,255,0.35)"/>
    <circle cx="40" cy="160" r="8" fill="rgba(255,255,255,0.3)"/>
    <circle cx="240" cy="240" r="12" fill="rgba(255,255,255,0.3)"/>
    <circle cx="160" cy="280" r="9" fill="rgba(255,255,255,0.35)"/>
    <circle cx="340" cy="280" r="11" fill="rgba(255,255,255,0.3)"/>
    <circle cx="120" cy="380" r="7" fill="rgba(255,255,255,0.3)"/>
  </g>
  <g opacity="0.6">
    <path d="M 60 76 a 6 6 0 0 1 4 -8" stroke="rgba(255,255,255,0.7)" stroke-width="2" fill="none" stroke-linecap="round"/>
    <path d="M 180 132 a 9 9 0 0 1 6 -10" stroke="rgba(255,255,255,0.7)" stroke-width="2.5" fill="none" stroke-linecap="round"/>
    <path d="M 300 196 a 7 7 0 0 1 5 -8" stroke="rgba(255,255,255,0.7)" stroke-width="2" fill="none" stroke-linecap="round"/>
  </g>
</svg>
