<svg xmlns="http://www.w3.org/2000/svg" viewBox="0 0 400 200" width="400" height="200">
  <defs>
    <linearGradient id="wp-bg" x1="0" y1="0" x2="0" y2="1">
      <stop offset="0%" stop-color="#E0F2FE"/>
      <stop offset="100%" stop-color="#DBEAFE"/>
    </linearGradient>
    <pattern id="wp-tile" x="0" y="0" width="80" height="40" patternUnits="userSpaceOnUse">
      <path d="M 0 20 q 20 -16 40 0 t 40 0" stroke="rgba(14,165,233,0.18)" stroke-width="1.5" fill="none"/>
      <path d="M 0 30 q 20 -10 40 0 t 40 0" stroke="rgba(34,211,238,0.14)" stroke-width="1.2" fill="none"/>
    </pattern>
  </defs>
  <rect width="400" height="200" fill="url(#wp-bg)"/>
  <rect width="400" height="200" fill="url(#wp-tile)"/>
  <path d="M 0 150 q 50 -30 100 0 t 100 0 t 100 0 t 100 0 v 50 H 0 z" fill="rgba(14,165,233,0.18)"/>
  <path d="M 0 165 q 50 -25 100 0 t 100 0 t 100 0 t 100 0 v 35 H 0 z" fill="rgba(14,165,233,0.25)"/>
  <path d="M 0 180 q 50 -18 100 0 t 100 0 t 100 0 t 100 0 v 20 H 0 z" fill="rgba(14,165,233,0.32)"/>
</svg>
