<svg xmlns="http://www.w3.org/2000/svg" viewBox="0 0 360 280" width="360" height="280">
  <defs>
    <linearGradient id="es-bg" x1="0" y1="0" x2="0" y2="1">
      <stop offset="0%" stop-color="#F0F9FF"/>
      <stop offset="100%" stop-color="#E0F2FE"/>
    </linearGradient>
    <linearGradient id="es-glass" x1="0" y1="0" x2="0" y2="1">
      <stop offset="0%" stop-color="rgba(186,230,253,0.4)"/>
      <stop offset="100%" stop-color="rgba(56,189,248,0.25)"/>
    </linearGradient>
  </defs>
  <rect width="360" height="280" rx="24" fill="url(#es-bg)"/>
  <ellipse cx="180" cy="240" rx="80" ry="8" fill="rgba(14,165,233,0.15)"/>
  <g transform="translate(180 130)">
    <path d="M -50 -50 L 50 -50 L 40 70 q -2 16 -16 16 h -48 q -14 0 -16 -16 z" fill="url(#es-glass)" stroke="#0EA5E9" stroke-width="2" opacity="0.95"/>
    <ellipse cx="0" cy="-50" rx="50" ry="6" fill="rgba(255,255,255,0.8)" stroke="#0EA5E9" stroke-width="2"/>
    <path d="M -42 -44 q 6 12 0 24 q -6 12 0 24" stroke="rgba(255,255,255,0.6)" stroke-width="3" fill="none" stroke-linecap="round"/>
    <ellipse cx="0" cy="86" rx="44" ry="4" fill="rgba(2,132,199,0.25)"/>
  </g>
  <g transform="translate(85 90)">
    <ellipse cx="0" cy="0" rx="22" ry="14" fill="rgba(255,255,255,0.95)"/>
    <ellipse cx="22" cy="-4" rx="14" ry="10" fill="rgba(255,255,255,0.9)"/>
    <ellipse cx="-18" cy="-2" rx="14" ry="10" fill="rgba(255,255,255,0.85)"/>
  </g>
  <g transform="translate(290 100)">
    <ellipse cx="0" cy="0" rx="20" ry="12" fill="rgba(255,255,255,0.92)"/>
    <ellipse cx="-16" cy="-3" rx="12" ry="8" fill="rgba(255,255,255,0.85)"/>
  </g>
  <g transform="translate(220 60)" opacity="0.85">
    <circle cx="0" cy="0" r="4" fill="#22D3EE"/>
    <path d="M 8 -2 q 2 -8 6 -2" stroke="#0EA5E9" stroke-width="2" fill="none" stroke-linecap="round"/>
  </g>
  <g transform="translate(150 50)" opacity="0.7">
    <text x="0" y="0" font-family="Inter, sans-serif" font-size="14" fill="#0EA5E9" font-weight="500">zZz</text>
  </g>
  <g transform="translate(180 210)">
    <text x="0" y="0" text-anchor="middle" font-family="Inter, sans-serif" font-size="13" font-weight="600" fill="#0F172A">No sips logged yet</text>
    <text x="0" y="18" text-anchor="middle" font-family="Inter, sans-serif" font-size="11" fill="#64748B">Tap the + to add your first one</text>
  </g>
</svg>
