<svg xmlns="http://www.w3.org/2000/svg" viewBox="0 0 360 360" width="360" height="360">
  <defs>
    <linearGradient id="gs-bg" x1="0" y1="0" x2="0" y2="1">
      <stop offset="0%" stop-color="#ECFEFF"/>
      <stop offset="100%" stop-color="#DBEAFE"/>
    </linearGradient>
    <linearGradient id="gs-water" x1="0" y1="0" x2="0" y2="1">
      <stop offset="0%" stop-color="#38BDF8"/>
      <stop offset="100%" stop-color="#0284C7"/>
    </linearGradient>
    <linearGradient id="gs-pour" x1="0" y1="0" x2="0" y2="1">
      <stop offset="0%" stop-color="#67E8F9"/>
      <stop offset="100%" stop-color="#0EA5E9"/>
    </linearGradient>
    <radialGradient id="gs-glow" cx="50%" cy="50%" r="50%">
      <stop offset="0%" stop-color="rgba(34,211,238,0.4)"/>
      <stop offset="100%" stop-color="rgba(34,211,238,0)"/>
    </radialGradient>
    <clipPath id="gs-clip">
      <path d="M 140 130 h 80 v 24 c 0 10 16 14 16 28 v 110 c 0 18 -14 26 -28 26 h -56 c -14 0 -28 -8 -28 -26 v -110 c 0 -14 16 -18 16 -28 z"/>
    </clipPath>
  </defs>
  <rect width="360" height="360" rx="24" fill="url(#gs-bg)"/>
  <circle cx="180" cy="200" r="150" fill="url(#gs-glow)"/>
  <g opacity="0.5">
    <circle cx="60" cy="80" r="4" fill="#0EA5E9"/>
    <circle cx="300" cy="100" r="5" fill="#22D3EE"/>
    <circle cx="40" cy="180" r="6" fill="#67E8F9"/>
    <circle cx="320" cy="240" r="4" fill="#0EA5E9"/>
  </g>
  <g transform="translate(70 30)">
    <path d="M 0 0 c 8 -8 28 -8 36 0 c 8 8 8 28 0 36 c -8 8 -28 8 -36 0 c -8 -8 -8 -28 0 -36 z" fill="#FFFFFF" opacity="0.9"/>
    <path d="M 14 12 q -4 4 0 12 q 6 8 14 4" stroke="#0EA5E9" stroke-width="3" fill="none" stroke-linecap="round"/>
  </g>
  <g>
    <path d="M 175 30 q -8 30 5 60 q 13 30 0 50" stroke="url(#gs-pour)" stroke-width="14" fill="none" stroke-linecap="round" opacity="0.85"/>
    <ellipse cx="180" cy="138" rx="12" ry="6" fill="#22D3EE" opacity="0.5"/>
  </g>
  <ellipse cx="180" cy="320" rx="86" ry="10" fill="rgba(14,165,233,0.18)"/>
  <path d="M 140 130 h 80 v 24 c 0 10 16 14 16 28 v 110 c 0 18 -14 26 -28 26 h -56 c -14 0 -28 -8 -28 -26 v -110 c 0 -14 16 -18 16 -28 z" fill="rgba(255,255,255,0.85)" stroke="#0EA5E9" stroke-width="2.5"/>
  <g clip-path="url(#gs-clip)">
    <rect x="120" y="200" width="120" height="120" fill="url(#gs-water)"/>
    <path d="M 110 204 q 14 -10 28 0 t 28 0 t 28 0 t 28 0 v 14 h -120 z" fill="rgba(255,255,255,0.4)"/>
    <circle cx="160" cy="240" r="3" fill="rgba(255,255,255,0.6)"/>
    <circle cx="200" cy="260" r="2.5" fill="rgba(255,255,255,0.55)"/>
    <circle cx="180" cy="280" r="3" fill="rgba(255,255,255,0.5)"/>
    <circle cx="210" cy="225" r="2" fill="rgba(255,255,255,0.6)"/>
  </g>
  <rect x="146" y="120" width="68" height="14" rx="4" fill="#0F172A"/>
  <g transform="translate(132 170)" font-family="Inter, sans-serif" font-size="9" fill="#0EA5E9" opacity="0.7" font-weight="500">
    <line x1="0" y1="0" x2="6" y2="0" stroke="#0EA5E9" stroke-width="1.5"/>
    <text x="-18" y="3">2L</text>
    <line x1="0" y1="40" x2="6" y2="40" stroke="#0EA5E9" stroke-width="1.5"/>
    <text x="-18" y="43">1L</text>
  </g>
  <g transform="translate(80 280)">
    <circle cx="0" cy="0" r="6" fill="#22D3EE" opacity="0.7"/>
    <circle cx="-12" cy="14" r="4" fill="#0EA5E9" opacity="0.6"/>
    <circle cx="14" cy="20" r="5" fill="#67E8F9" opacity="0.7"/>
  </g>
  <g transform="translate(280 280)">
    <circle cx="0" cy="0" r="5" fill="#22D3EE" opacity="0.7"/>
    <circle cx="14" cy="14" r="4" fill="#0EA5E9" opacity="0.6"/>
    <circle cx="-10" cy="20" r="6" fill="#67E8F9" opacity="0.7"/>
  </g>
</svg>
