<svg xmlns="http://www.w3.org/2000/svg" viewBox="0 0 360 320" width="360" height="320">
  <defs>
    <linearGradient id="cel-bg" x1="0" y1="0" x2="0" y2="1">
      <stop offset="0%" stop-color="#DBEAFE"/>
      <stop offset="100%" stop-color="#ECFEFF"/>
    </linearGradient>
    <linearGradient id="cel-medal" x1="0" y1="0" x2="1" y2="1">
      <stop offset="0%" stop-color="#0EA5E9"/>
      <stop offset="100%" stop-color="#22D3EE"/>
    </linearGradient>
    <linearGradient id="cel-ribbon" x1="0" y1="0" x2="0" y2="1">
      <stop offset="0%" stop-color="#1E40AF"/>
      <stop offset="100%" stop-color="#0EA5E9"/>
    </linearGradient>
    <radialGradient id="cel-glow" cx="50%" cy="50%" r="50%">
      <stop offset="0%" stop-color="rgba(34,211,238,0.45)"/>
      <stop offset="100%" stop-color="rgba(34,211,238,0)"/>
    </radialGradient>
  </defs>
  <rect width="360" height="320" rx="24" fill="url(#cel-bg)"/>
  <circle cx="180" cy="170" r="140" fill="url(#cel-glow)"/>
  <g opacity="0.85">
    <rect x="60" y="60" width="6" height="14" rx="2" fill="#F97316" transform="rotate(20 63 67)"/>
    <rect x="290" y="80" width="6" height="14" rx="2" fill="#22D3EE" transform="rotate(-30 293 87)"/>
    <rect x="40" y="140" width="6" height="14" rx="2" fill="#0EA5E9" transform="rotate(45 43 147)"/>
    <rect x="310" y="160" width="6" height="14" rx="2" fill="#FB923C" transform="rotate(-15 313 167)"/>
    <rect x="50" y="240" width="6" height="14" rx="2" fill="#67E8F9" transform="rotate(60 53 247)"/>
    <rect x="300" y="250" width="6" height="14" rx="2" fill="#0EA5E9" transform="rotate(-45 303 257)"/>
    <circle cx="100" cy="100" r="3" fill="#22D3EE"/>
    <circle cx="270" cy="120" r="3" fill="#F97316"/>
    <circle cx="80" cy="200" r="2.5" fill="#0EA5E9"/>
    <circle cx="280" cy="220" r="3" fill="#67E8F9"/>
    <path d="M 130 50 l 4 4 m 0 -4 l -4 4" stroke="#F97316" stroke-width="2" stroke-linecap="round"/>
    <path d="M 240 50 l 4 4 m 0 -4 l -4 4" stroke="#22D3EE" stroke-width="2" stroke-linecap="round"/>
  </g>
  <g transform="translate(180 165)">
    <path d="M -52 -10 L -34 -54 L 34 -54 L 52 -10 L 28 -10 L 14 -34 L -14 -34 L -28 -10 Z" fill="url(#cel-ribbon)"/>
    <circle cx="0" cy="20" r="68" fill="rgba(255,255,255,0.4)"/>
    <circle cx="0" cy="20" r="58" fill="url(#cel-medal)" stroke="rgba(255,255,255,0.6)" stroke-width="3"/>
    <circle cx="0" cy="20" r="48" fill="none" stroke="rgba(255,255,255,0.35)" stroke-width="2" stroke-dasharray="4 3"/>
    <g transform="translate(0 24)">
      <path d="M 0 -28 C 0 -28 -20 -4 -20 12 a 20 20 0 0 0 40 0 C 20 -4 0 -28 0 -28 Z" fill="#FFFFFF"/>
      <path d="M -8 6 q 0 10 8 12" stroke="rgba(14,165,233,0.5)" stroke-width="2.5" fill="none" stroke-linecap="round"/>
    </g>
    <g transform="translate(0 -54)">
      <path d="M 0 -10 l 3 6 l 6 1 l -4 4 l 1 6 l -6 -3 l -6 3 l 1 -6 l -4 -4 l 6 -1 z" fill="#F97316" stroke="#FFFFFF" stroke-width="1.5"/>
    </g>
  </g>
  <g transform="translate(180 270)">
    <text x="0" y="0" text-anchor="middle" font-family="Inter, sans-serif" font-size="16" font-weight="600" fill="#0F172A">Goal smashed!</text>
    <text x="0" y="20" text-anchor="middle" font-family="Inter, sans-serif" font-size="11" fill="#64748B">12 day streak · keep flowing</text>
  </g>
</svg>
