<svg xmlns="http://www.w3.org/2000/svg" viewBox="0 0 480 360" width="480" height="360">
  <defs>
    <linearGradient id="sky" x1="0" y1="0" x2="0" y2="1">
      <stop offset="0%" stop-color="#E0F2FE"/>
      <stop offset="100%" stop-color="#ECFEFF"/>
    </linearGradient>
    <linearGradient id="bottle" x1="0" y1="0" x2="1" y2="1">
      <stop offset="0%" stop-color="#0EA5E9"/>
      <stop offset="100%" stop-color="#22D3EE"/>
    </linearGradient>
    <linearGradient id="water" x1="0" y1="0" x2="0" y2="1">
      <stop offset="0%" stop-color="#38BDF8"/>
      <stop offset="100%" stop-color="#0284C7"/>
    </linearGradient>
    <radialGradient id="glow" cx="50%" cy="50%" r="50%">
      <stop offset="0%" stop-color="rgba(34,211,238,0.35)"/>
      <stop offset="100%" stop-color="rgba(34,211,238,0)"/>
    </radialGradient>
    <clipPath id="bottleClip">
      <path d="M 220 90 h 40 v 16 c 0 6 12 8 12 22 v 130 c 0 16 -12 24 -28 24 h -8 c -16 0 -28 -8 -28 -24 v -130 c 0 -14 12 -16 12 -22 z"/>
    </clipPath>
  </defs>
  <rect width="480" height="360" rx="24" fill="url(#sky)"/>
  <circle cx="240" cy="190" r="160" fill="url(#glow)"/>
  <g opacity="0.55">
    <circle cx="80" cy="60" r="6" fill="#67E8F9"/>
    <circle cx="120" cy="120" r="4" fill="#0EA5E9"/>
    <circle cx="60" cy="200" r="8" fill="#22D3EE"/>
    <circle cx="400" cy="80" r="5" fill="#22D3EE"/>
    <circle cx="430" cy="180" r="7" fill="#67E8F9"/>
    <circle cx="380" cy="280" r="4" fill="#0EA5E9"/>
    <path d="M 100 280 q 6 -10 12 0 q 6 10 12 0" stroke="#0EA5E9" stroke-width="2" fill="none" stroke-linecap="round" opacity="0.5"/>
    <path d="M 360 320 q 6 -10 12 0 q 6 10 12 0" stroke="#0EA5E9" stroke-width="2" fill="none" stroke-linecap="round" opacity="0.5"/>
  </g>
  <g transform="translate(0 0)">
    <ellipse cx="240" cy="320" rx="100" ry="10" fill="rgba(14,165,233,0.18)"/>
    <path d="M 220 90 h 40 v 16 c 0 6 12 8 12 22 v 130 c 0 16 -12 24 -28 24 h -8 c -16 0 -28 -8 -28 -24 v -130 c 0 -14 12 -16 12 -22 z" fill="rgba(255,255,255,0.85)" stroke="#0EA5E9" stroke-width="2"/>
    <g clip-path="url(#bottleClip)">
      <rect x="200" y="180" width="84" height="120" fill="url(#water)"/>
      <path d="M 195 184 q 12 -8 24 0 t 24 0 t 24 0 t 24 0 v 12 h -100 z" fill="rgba(255,255,255,0.4)"/>
      <circle cx="220" cy="220" r="3" fill="rgba(255,255,255,0.6)"/>
      <circle cx="248" cy="240" r="2" fill="rgba(255,255,255,0.55)"/>
      <circle cx="236" cy="260" r="2.5" fill="rgba(255,255,255,0.5)"/>
      <circle cx="252" cy="200" r="1.8" fill="rgba(255,255,255,0.6)"/>
    </g>
    <rect x="226" y="80" width="28" height="14" rx="4" fill="#0F172A"/>
    <rect x="216" y="160" width="6" height="2" rx="1" fill="rgba(14,165,233,0.4)"/>
    <rect x="216" y="180" width="6" height="2" rx="1" fill="rgba(14,165,233,0.4)"/>
    <rect x="216" y="200" width="6" height="2" rx="1" fill="rgba(14,165,233,0.4)"/>
    <rect x="216" y="220" width="6" height="2" rx="1" fill="rgba(14,165,233,0.4)"/>
  </g>
  <g transform="translate(120 110)">
    <circle cx="0" cy="0" r="12" fill="url(#bottle)"/>
    <path d="M 0 -8 C 0 -8 -6 -1 -6 4 a 6 6 0 0 0 12 0 C 6 -1 0 -8 0 -8 Z" fill="#FFFFFF"/>
  </g>
  <g transform="translate(360 130)">
    <circle cx="0" cy="0" r="9" fill="#22D3EE"/>
    <path d="M 0 -6 C 0 -6 -4 -1 -4 3 a 4 4 0 0 0 8 0 C 4 -1 0 -6 0 -6 Z" fill="#FFFFFF"/>
  </g>
  <g transform="translate(380 250)">
    <circle cx="0" cy="0" r="14" fill="url(#bottle)"/>
    <path d="M 0 -10 C 0 -10 -7 -1 -7 5 a 7 7 0 0 0 14 0 C 7 -1 0 -10 0 -10 Z" fill="#FFFFFF"/>
  </g>
  <g transform="translate(90 270)" opacity="0.85">
    <path d="M 0 0 q -10 -16 -20 0" stroke="#0EA5E9" stroke-width="2.5" fill="none" stroke-linecap="round"/>
    <path d="M 4 -8 l 8 -4 m -4 4 l 4 -8" stroke="#22D3EE" stroke-width="2" stroke-linecap="round"/>
  </g>
</svg>
